<mxfile host="app.diagrams.net" agent="Mozilla/5.0 (Windows NT 10.0; Win64; x64) AppleWebKit/537.36 (KHTML, like Gecko) Chrome/139.0.0.0 Safari/537.36 Edg/139.0.0.0" version="28.1.0">
  <diagram name="第 1 页" id="kPw4YNBxurrJfTGqe08F">
    <mxGraphModel dx="1546" dy="858" grid="1" gridSize="10" guides="1" tooltips="1" connect="1" arrows="1" fold="1" page="1" pageScale="1" pageWidth="827" pageHeight="1169" math="0" shadow="0">
      <root>
        <mxCell id="0" />
        <mxCell id="1" parent="0" />
        <mxCell id="DJ5jU6lqjomgZCdglMPA-2" value="Manager" style="swimlane;whiteSpace=wrap;html=1;" parent="1" vertex="1">
          <mxGeometry x="40" y="170" width="310" height="390" as="geometry" />
        </mxCell>
        <mxCell id="werlfbWc4_nwf8N9p9zT-2" value="&lt;font style=&quot;font-size: 19px;&quot;&gt;ExecutorBizClient&lt;/font&gt;" style="swimlane;childLayout=stackLayout;horizontal=1;startSize=50;horizontalStack=0;rounded=1;fontSize=14;fontStyle=0;strokeWidth=2;resizeParent=0;resizeLast=1;shadow=0;dashed=0;align=center;arcSize=4;whiteSpace=wrap;html=1;" vertex="1" parent="DJ5jU6lqjomgZCdglMPA-2">
          <mxGeometry x="20" y="50" width="190" height="180" as="geometry" />
        </mxCell>
        <mxCell id="werlfbWc4_nwf8N9p9zT-3" value="向具体执行器推送需要进行的事件" style="align=left;strokeColor=none;fillColor=none;spacingLeft=4;spacingRight=4;fontSize=12;verticalAlign=top;resizable=0;rotatable=0;part=1;html=1;whiteSpace=wrap;" vertex="1" parent="werlfbWc4_nwf8N9p9zT-2">
          <mxGeometry y="50" width="190" height="130" as="geometry" />
        </mxCell>
        <mxCell id="DJ5jU6lqjomgZCdglMPA-3" value="Executor" style="swimlane;whiteSpace=wrap;html=1;startSize=23;" parent="1" vertex="1">
          <mxGeometry x="500" y="170" width="260" height="390" as="geometry" />
        </mxCell>
        <mxCell id="werlfbWc4_nwf8N9p9zT-4" value="&lt;font style=&quot;font-size: 19px;&quot;&gt;ExecutorBizImpl&lt;/font&gt;" style="swimlane;childLayout=stackLayout;horizontal=1;startSize=50;horizontalStack=0;rounded=1;fontSize=14;fontStyle=0;strokeWidth=2;resizeParent=0;resizeLast=1;shadow=0;dashed=0;align=center;arcSize=4;whiteSpace=wrap;html=1;" vertex="1" parent="DJ5jU6lqjomgZCdglMPA-3">
          <mxGeometry x="20" y="50" width="180" height="170" as="geometry" />
        </mxCell>
        <mxCell id="werlfbWc4_nwf8N9p9zT-5" value="接受Manager推送过来的事件并处理" style="align=left;strokeColor=none;fillColor=none;spacingLeft=4;spacingRight=4;fontSize=12;verticalAlign=top;resizable=0;rotatable=0;part=1;html=1;whiteSpace=wrap;" vertex="1" parent="werlfbWc4_nwf8N9p9zT-4">
          <mxGeometry y="50" width="180" height="120" as="geometry" />
        </mxCell>
        <mxCell id="werlfbWc4_nwf8N9p9zT-6" value="&lt;pre style=&quot;font-family: &amp;quot;JetBrains Mono&amp;quot;, monospace;&quot;&gt;&lt;font style=&quot;color: rgb(0, 0, 0); font-size: 19.0667px;&quot;&gt;&lt;b style=&quot;&quot;&gt;ExecutorBiz（接口）&lt;/b&gt;&lt;/font&gt;&lt;/pre&gt;" style="swimlane;childLayout=stackLayout;horizontal=1;startSize=50;horizontalStack=0;rounded=1;fontSize=14;fontStyle=0;strokeWidth=2;resizeParent=0;resizeLast=1;shadow=0;dashed=0;align=center;arcSize=4;whiteSpace=wrap;html=1;" vertex="1" parent="1">
          <mxGeometry x="300" y="20" width="240" height="120" as="geometry" />
        </mxCell>
        <mxCell id="werlfbWc4_nwf8N9p9zT-7" value="定义了执行器的业务功能" style="align=left;strokeColor=none;fillColor=none;spacingLeft=4;spacingRight=4;fontSize=12;verticalAlign=top;resizable=0;rotatable=0;part=1;html=1;whiteSpace=wrap;" vertex="1" parent="werlfbWc4_nwf8N9p9zT-6">
          <mxGeometry y="50" width="240" height="70" as="geometry" />
        </mxCell>
        <mxCell id="werlfbWc4_nwf8N9p9zT-9" value="执行器调度模型" style="swimlane;" vertex="1" parent="1">
          <mxGeometry x="50" y="700" width="750" height="340" as="geometry" />
        </mxCell>
        <mxCell id="werlfbWc4_nwf8N9p9zT-12" value="JobThread" style="swimlane;childLayout=stackLayout;horizontal=1;startSize=50;horizontalStack=0;rounded=1;fontSize=14;fontStyle=0;strokeWidth=2;resizeParent=0;resizeLast=1;shadow=0;dashed=0;align=center;arcSize=4;whiteSpace=wrap;html=1;" vertex="1" parent="werlfbWc4_nwf8N9p9zT-9">
          <mxGeometry x="25" y="40" width="155" height="260" as="geometry" />
        </mxCell>
        <mxCell id="werlfbWc4_nwf8N9p9zT-13" value="+triggerQueue 指令事件阻塞队列（LinkedBlockingQueue）&lt;br&gt;+handler 执行器(IJobHandler)&lt;br&gt;+idleTimes 空闲时间，当超过30s代表执行器失去与Manger的连接" style="align=left;strokeColor=none;fillColor=none;spacingLeft=4;spacingRight=4;fontSize=12;verticalAlign=top;resizable=0;rotatable=0;part=1;html=1;whiteSpace=wrap;" vertex="1" parent="werlfbWc4_nwf8N9p9zT-12">
          <mxGeometry y="50" width="155" height="210" as="geometry" />
        </mxCell>
        <mxCell id="werlfbWc4_nwf8N9p9zT-14" value="IJobHandler" style="swimlane;childLayout=stackLayout;horizontal=1;startSize=50;horizontalStack=0;rounded=1;fontSize=14;fontStyle=0;strokeWidth=2;resizeParent=0;resizeLast=1;shadow=0;dashed=0;align=center;arcSize=4;whiteSpace=wrap;html=1;" vertex="1" parent="werlfbWc4_nwf8N9p9zT-9">
          <mxGeometry x="260" y="40" width="160" height="120" as="geometry" />
        </mxCell>
        <mxCell id="werlfbWc4_nwf8N9p9zT-15" value="+execute 具体的业务逻辑&lt;br&gt;+init 初始化方法&lt;br&gt;+destroy 销毁方法" style="align=left;strokeColor=none;fillColor=none;spacingLeft=4;spacingRight=4;fontSize=12;verticalAlign=top;resizable=0;rotatable=0;part=1;html=1;whiteSpace=wrap;" vertex="1" parent="werlfbWc4_nwf8N9p9zT-14">
          <mxGeometry y="50" width="160" height="70" as="geometry" />
        </mxCell>
      </root>
    </mxGraphModel>
  </diagram>
</mxfile>
